<?xml version="1.0" standalone="no"?>
<!DOCTYPE svg PUBLIC "-//W3C//DTD SVG 20010904//EN"
 "http://www.w3.org/TR/2001/REC-SVG-20010904/DTD/svg10.dtd">
<svg version="1.0" xmlns="http://www.w3.org/2000/svg"
 width="700.000000pt" height="700.000000pt" viewBox="0 0 700.000000 700.000000"
 preserveAspectRatio="xMidYMid meet">
<metadata>
Created by potrace 1.14, written by Peter Selinger 2001-2017
</metadata>
<g transform="translate(0.000000,700.000000) scale(0.100000,-0.100000)"
fill="#000000" stroke="none">
<path d="M1608 6982 c-50 -30 -58 -64 -58 -239 l0 -158 -193 -1 c-170 -1 -198
-3 -238 -21 -95 -42 -151 -117 -164 -218 -3 -27 -8 -70 -11 -95 -3 -25 -7 -56
-9 -69 -3 -14 -7 -51 -10 -84 -4 -32 -8 -66 -10 -75 -1 -9 -6 -46 -10 -82 -3
-36 -10 -91 -15 -124 -5 -32 -9 -61 -8 -65 1 -3 -1 -24 -5 -46 -4 -22 -9 -62
-12 -90 -3 -27 -10 -84 -15 -125 -5 -41 -12 -97 -15 -125 -8 -71 -16 -136 -20
-164 -3 -14 -7 -54 -10 -90 -4 -36 -8 -73 -10 -81 -2 -8 -7 -42 -10 -75 -3
-33 -8 -69 -10 -80 -2 -11 -4 -23 -4 -26 -1 -4 -79 -6 -174 -5 l-172 1 -2 310
c-1 171 -2 320 -2 332 -1 13 -14 37 -29 54 -21 24 -39 32 -73 36 -41 5 -50 2
-78 -23 -17 -16 -35 -42 -39 -59 -5 -16 -8 -199 -7 -405 1 -405 3 -423 54
-457 23 -15 53 -17 256 -18 l230 0 0 -40 c-1 -37 -12 -155 -20 -193 -1 -9 -6
-46 -10 -82 -4 -36 -8 -72 -10 -80 -4 -24 -17 -155 -16 -160 1 -3 -88 -7 -196
-10 -192 -5 -200 -6 -255 -33 -74 -36 -133 -103 -156 -177 -16 -52 -17 -132
-17 -1016 l0 -959 78 -3 77 -3 0 -831 c0 -625 3 -841 12 -872 16 -54 90 -128
144 -144 30 -9 174 -12 531 -12 l489 0 51 25 c52 26 93 70 115 122 8 20 12
178 14 553 1 289 3 532 3 540 1 13 223 15 1931 15 1282 0 1930 -3 1931 -10 0
-5 1 -248 2 -540 l2 -530 24 -48 c26 -53 83 -101 140 -118 24 -7 207 -9 536
-7 l500 3 40 26 c22 15 50 39 63 54 53 61 52 44 52 941 l0 834 78 0 77 0 0
968 c-1 1034 0 1002 -50 1082 -33 51 -73 86 -126 109 -64 29 -72 29 -269 30
l-176 1 -2 33 c-1 18 -4 43 -7 56 -2 12 -7 49 -10 82 -4 33 -8 69 -10 80 -2
11 -7 47 -10 80 -4 33 -8 68 -10 77 -1 9 -6 49 -10 87 l-7 70 229 0 c250 -1
276 4 307 55 14 25 16 74 16 427 0 380 -1 399 -20 431 -31 51 -93 66 -149 37
-55 -28 -59 -50 -59 -385 0 -168 -1 -312 -1 -322 -1 -14 -20 -16 -175 -16
l-175 1 -5 26 c-3 14 -8 51 -11 81 -3 30 -8 71 -11 90 -2 19 -6 55 -9 80 -3
25 -7 61 -10 80 -6 47 -15 117 -20 160 -2 19 -6 53 -9 75 -3 22 -10 81 -16
130 -6 50 -13 108 -16 130 -2 22 -7 56 -9 75 -2 19 -9 71 -14 115 -6 44 -13
103 -16 130 -3 28 -7 64 -10 80 -5 32 -11 83 -21 180 -14 149 -62 233 -159
281 -54 26 -60 27 -250 28 -188 1 -195 2 -196 21 0 11 0 83 0 159 1 149 -9
189 -51 215 -60 38 -145 12 -167 -51 -6 -17 -11 -100 -11 -187 l0 -157 -1720
0 -1720 0 0 159 c0 183 -10 220 -66 243 -44 18 -73 17 -106 -4z"/>
</g>
</svg>
